<svg xmlns="http://www.w3.org/2000/svg" width="940" height="1166" viewBox="0 0 940 1166" role="img" aria-labelledby="figure-title figure-description"><title id="figure-title">Recorded suite contradictions</title><desc id="figure-description">Suite contradictions recorded by selected run 20260821T1458-remediated, including the actual evidence boundary for each claim.</desc><style>text{font-family:ui-sans-serif,system-ui,sans-serif;fill:#172033}.heading{font-size:22px;font-weight:700}.label{font-size:13px;font-weight:600}.detail{font-size:12px;fill:#48566a}.meta{font-size:11px;fill:#5f6c80}</style><rect width="100%" height="100%" fill="#ffffff"/><text class="heading" x="28" y="38">Recorded suite contradictions</text><text class="detail" x="28" y="60">Selected run ID: 20260821T1458-remediated</text><text class="meta" x="28" y="79">Observations SHA256: 5cee141d9b73fc4d9710c699bd18d00724764210a5a3565c87af94e50411aca1</text><rect x="28" y="102" width="884" height="56" rx="5" fill="#fff4f2" stroke="#d9b5af"/><text class="label" x="44" y="123">DD-0269 — sequence length: expected 2024; observed 2048</text><text class="detail" x="44" y="145">Actual evidence boundary: paper_or_final_artifact</text><rect x="28" y="168" width="884" height="56" rx="5" fill="#f8eeec" stroke="#d9b5af"/><text class="label" x="44" y="189">DD-0276 — training steps: expected 5,725; observed 5,715</text><text class="detail" x="44" y="211">Actual evidence boundary: paper_or_final_artifact</text><rect x="28" y="234" width="884" height="56" rx="5" fill="#fff4f2" stroke="#d9b5af"/><text class="label" x="44" y="255">DD-0277 — training steps: expected 9,182; observed 9,172</text><text class="detail" x="44" y="277">Actual evidence boundary: paper_or_final_artifact</text><rect x="28" y="300" width="884" height="56" rx="5" fill="#f8eeec" stroke="#d9b5af"/><text class="label" x="44" y="321">DD-0278 — training steps: expected 13,039; observed 13,029</text><text class="detail" x="44" y="343">Actual evidence boundary: paper_or_final_artifact</text><rect x="28" y="366" width="884" height="56" rx="5" fill="#fff4f2" stroke="#d9b5af"/><text class="label" x="44" y="387">DD-0279 — training steps: expected 15,117; observed 15,107</text><text class="detail" x="44" y="409">Actual evidence boundary: paper_or_final_artifact</text><rect x="28" y="432" width="884" height="56" rx="5" fill="#f8eeec" stroke="#d9b5af"/><text class="label" x="44" y="453">DD-0280 — training steps: expected 21,953; observed 21,943</text><text class="detail" x="44" y="475">Actual evidence boundary: paper_or_final_artifact</text><rect x="28" y="498" width="884" height="56" rx="5" fill="#fff4f2" stroke="#d9b5af"/><text class="label" x="44" y="519">DD-0281 — training steps: expected 24,432; observed 24,422</text><text class="detail" x="44" y="541">Actual evidence boundary: paper_or_final_artifact</text><rect x="28" y="564" width="884" height="56" rx="5" fill="#f8eeec" stroke="#d9b5af"/><text class="label" x="44" y="585">DD-0282 — training steps: expected 14,584; observed 14,574</text><text class="detail" x="44" y="607">Actual evidence boundary: paper_or_final_artifact</text><rect x="28" y="630" width="884" height="56" rx="5" fill="#fff4f2" stroke="#d9b5af"/><text class="label" x="44" y="651">DD-0283 — training steps: expected 29,042; observed 29,032</text><text class="detail" x="44" y="673">Actual evidence boundary: paper_or_final_artifact</text><rect x="28" y="696" width="884" height="56" rx="5" fill="#f8eeec" stroke="#d9b5af"/><text class="label" x="44" y="717">DD-0284 — training steps: expected 29,901; observed 29,891</text><text class="detail" x="44" y="739">Actual evidence boundary: paper_or_final_artifact</text><rect x="28" y="762" width="884" height="56" rx="5" fill="#fff4f2" stroke="#d9b5af"/><text class="label" x="44" y="783">DD-0285 — training steps: expected 38,157; observed 38,147</text><text class="detail" x="44" y="805">Actual evidence boundary: paper_or_final_artifact</text><rect x="28" y="828" width="884" height="56" rx="5" fill="#f8eeec" stroke="#d9b5af"/><text class="label" x="44" y="849">DD-0286 — training steps: expected 45,787; observed 45,777</text><text class="detail" x="44" y="871">Actual evidence boundary: paper_or_final_artifact</text><rect x="28" y="894" width="884" height="56" rx="5" fill="#fff4f2" stroke="#d9b5af"/><text class="label" x="44" y="915">DD-0287 — training steps: expected 57,786; observed 57,766</text><text class="detail" x="44" y="937">Actual evidence boundary: paper_or_final_artifact</text><rect x="28" y="960" width="884" height="56" rx="5" fill="#f8eeec" stroke="#d9b5af"/><text class="label" x="44" y="981">DD-0288 — training steps: expected 63,589; observed 63,579</text><text class="detail" x="44" y="1003">Actual evidence boundary: paper_or_final_artifact</text><rect x="28" y="1026" width="884" height="56" rx="5" fill="#fff4f2" stroke="#d9b5af"/><text class="label" x="44" y="1047">DD-0289 — learning rate: expected 2.1e-03; observed 2.2e-03; training steps: expected 69,369; observed 69,359</text><text class="detail" x="44" y="1069">Actual evidence boundary: paper_or_final_artifact</text><text class="meta" x="28" y="1146">Mismatch labels are parsed from recorded diagnostics; no catalog or table is consulted.</text></svg>