<svg xmlns="http://www.w3.org/2000/svg" width="820" height="470" viewBox="0 0 820 470" role="img" aria-labelledby="figure-title figure-description"><title id="figure-title">Paper verification verdict summary</title><desc id="figure-description">Verdict counts recorded by selected run 20260821T141605-qualified; each bar is labeled with its verdict and count.</desc><style>text{font-family:ui-sans-serif,system-ui,sans-serif;fill:#172033}.heading{font-size:22px;font-weight:700}.label{font-size:13px;font-weight:600}.detail{font-size:12px;fill:#48566a}.meta{font-size:11px;fill:#5f6c80}</style><rect width="100%" height="100%" fill="#ffffff"/><text class="heading" x="28" y="38">Recorded verdicts</text><text class="detail" x="28" y="60">Selected run ID: 20260821T141605-qualified</text><text class="meta" x="28" y="79">Observations SHA256: 093d52f2d221ca8cb2538028be7bbc930c75daecfca5d196e57ec53d4006962f</text><text class="label" x="28" y="119">reproduced: 0</text><rect x="325" y="103" width="360" height="22" rx="3" fill="#e6eaf0"/><rect x="325" y="103" width="0" height="22" rx="3" fill="#20639b"/><text class="label" x="28" y="153">contradicted: 15</text><rect x="325" y="137" width="360" height="22" rx="3" fill="#e6eaf0"/><rect x="325" y="137" width="35" height="22" rx="3" fill="#b23a48"/><text class="label" x="28" y="187">internally_inconsistent: 0</text><rect x="325" y="171" width="360" height="22" rx="3" fill="#e6eaf0"/><rect x="325" y="171" width="0" height="22" rx="3" fill="#8f4a64"/><text class="label" x="28" y="221">source_only_match: 154</text><rect x="325" y="205" width="360" height="22" rx="3" fill="#e6eaf0"/><rect x="325" y="205" width="360" height="22" rx="3" fill="#3d7a57"/><text class="label" x="28" y="255">blocked_missing_input: 64</text><rect x="325" y="239" width="360" height="22" rx="3" fill="#e6eaf0"/><rect x="325" y="239" width="149" height="22" rx="3" fill="#9a6b1f"/><text class="label" x="28" y="289">blocked_unspecified_method: 108</text><rect x="325" y="273" width="360" height="22" rx="3" fill="#e6eaf0"/><rect x="325" y="273" width="252" height="22" rx="3" fill="#20639b"/><text class="label" x="28" y="323">external_or_citation_dependent: 39</text><rect x="325" y="307" width="360" height="22" rx="3" fill="#e6eaf0"/><rect x="325" y="307" width="91" height="22" rx="3" fill="#b23a48"/><text class="label" x="28" y="357">not_attempted: 62</text><rect x="325" y="341" width="360" height="22" rx="3" fill="#e6eaf0"/><rect x="325" y="341" width="144" height="22" rx="3" fill="#8f4a64"/><text class="label" x="28" y="391">not_applicable: 0</text><rect x="325" y="375" width="360" height="22" rx="3" fill="#e6eaf0"/><rect x="325" y="375" width="0" height="22" rx="3" fill="#3d7a57"/><text class="meta" x="28" y="450">Counts are rendered from immutable observations; bar color is redundant.</text></svg>